<svg viewBox="0 0 433 231" fill="none" xmlns="http://www.w3.org/2000/svg">
<path d="M165.7 30.1L168.4 16H254.8L251.8 30.1L227.2 32.8L210.4 121.9C208 134.5 205.7 147.2 203.5 160C201.3 172.6 199.1 185.2 196.9 197.8L222.4 200.8L219.7 214.9H133.3L136.3 200.8L160.9 198.1L175.6 120.7H93.3999L93.0999 121.9C90.6999 134.5 88.3999 147.2 86.1999 160C83.9999 172.6 81.7999 185.2 79.5999 197.8L105.1 200.8L102.4 214.9H15.9999L18.9999 200.8L43.5999 198.1L60.3999 109C62.7999 96.4 65.0999 83.8 67.2999 71.2C69.6999 58.4 71.8999 45.7 73.8999 33.1L48.3999 30.1L51.0999 16H137.5L134.5 30.1L109.9 32.8L96.3999 105.1H178.3C180.5 93.1 182.7 81.1 184.9 69.1C187.1 57.1 189.2 45.1 191.2 33.1L165.7 30.1Z" fill="#CFB991"/>
<path d="M242.444 70.6L253.544 16H416.144L406.844 70.6H387.644L388.544 31.9H350.444L333.344 121.9C331.144 134.5 328.844 147.1 326.444 159.7C324.244 172.3 322.044 185 319.844 197.8L348.044 200.8L345.344 214.9H253.244L256.244 200.8L284.144 197.8L300.644 109C303.244 96.2 305.644 83.4 307.844 70.6C310.244 57.6 312.444 44.7 314.444 31.9H275.444L261.944 70.6H242.444Z" fill="#CFB991"/>
<path d="M137.5 0C142.328 0 146.898 2.17955 149.935 5.93164C151.36 7.69136 152.375 9.70946 152.949 11.8428C154.812 4.9044 161.12 0 168.4 0H416.143C420.857 0 425.33 2.07814 428.37 5.67969C431.41 9.28134 432.708 14.0403 431.917 18.6865L422.616 73.2861C421.306 80.9753 414.644 86.5996 406.844 86.5996H387.643C383.336 86.5996 379.21 84.8626 376.199 81.7812C373.189 78.6999 371.548 74.5343 371.648 70.2275L372.167 47.9004H363.689L349.086 124.761C346.885 137.363 344.584 149.964 342.184 162.565C340.96 169.578 339.738 176.621 338.514 183.695L349.736 184.89C354.186 185.363 358.234 187.678 360.898 191.273C363.563 194.868 364.599 199.415 363.758 203.81L361.059 217.909C359.615 225.448 353.02 230.9 345.344 230.9H253.244C248.416 230.9 243.846 228.72 240.809 224.968C237.771 221.216 236.589 216.292 237.594 211.57L240.594 197.471L240.741 196.841C242.386 190.392 247.871 185.608 254.533 184.892L270.589 183.165L284.913 106.077L284.964 105.815C287.532 93.1723 289.903 80.5301 292.075 67.8896L292.109 67.6953C293.332 61.0697 294.502 54.4712 295.62 47.9004H286.808L277.051 75.8701C274.809 82.2955 268.748 86.5996 261.943 86.5996H242.443C239.349 86.5995 236.362 85.7029 233.814 84.0713L226.123 124.864C226.121 124.874 226.119 124.884 226.117 124.894C223.735 137.398 221.452 150.004 219.268 162.71C219.266 162.724 219.264 162.738 219.262 162.752C218.032 169.797 216.801 176.841 215.571 183.886L224.269 184.909C228.683 185.428 232.682 187.76 235.308 191.345C237.933 194.929 238.95 199.445 238.114 203.81L235.414 217.909C233.97 225.448 227.376 230.9 219.7 230.9H133.3C128.472 230.9 123.902 228.72 120.864 224.968C119.44 223.208 118.424 221.191 117.85 219.058C115.987 225.996 109.681 230.9 102.4 230.9H15.9999C11.1721 230.9 6.60222 228.72 3.56436 224.968C0.526607 221.216 -0.654193 216.292 0.350495 211.57L3.35049 197.471L3.49698 196.842C5.13847 190.405 10.6065 185.625 17.2538 184.896L30.0722 183.488L44.6767 106.035C44.6785 106.025 44.6807 106.016 44.6825 106.006C47.0672 93.4863 49.3522 80.9671 51.538 68.4482L51.5741 68.251C52.9064 61.1453 54.1736 54.0718 55.3808 47.0312L46.5302 45.9902C42.1172 45.471 38.119 43.1401 35.4931 39.5557C32.8671 35.9709 31.8497 31.4552 32.6855 27.0908L35.3857 12.9912L35.4569 12.6387C37.0356 5.28254 43.5435 0.000183116 51.0995 0H137.5ZM51.0995 16L48.4003 30.0996L73.9003 33.0996C71.9003 45.6996 69.6997 58.4002 67.2997 71.2002L66.4706 75.9248C64.5237 86.9499 62.5003 97.9749 60.4003 109L43.5995 198.1L18.9999 200.8L15.9999 214.9H102.4L105.1 200.8L79.5995 197.8L86.2001 160C88.4001 147.2 90.6995 134.5 93.0995 121.9L93.4003 120.7H175.6L160.9 198.1L136.3 200.8L133.3 214.9H219.7L222.4 200.8L196.9 197.8C199.1 185.2 201.3 172.6 203.5 160C205.425 148.8 207.427 137.677 209.505 126.63L227.2 32.7998L250.651 30.2256L242.443 70.5996H261.943L275.443 31.9004H314.443C312.443 44.7001 310.244 57.5999 307.844 70.5996C305.644 83.3996 303.243 96.2 300.643 109L284.143 197.8L256.244 200.8L253.244 214.9H345.344L348.044 200.8L319.844 197.8C322.044 185 324.243 172.3 326.443 159.7C328.843 147.1 331.144 134.5 333.344 121.9L350.443 31.9004H388.544L387.643 70.5996H406.844L416.143 16H168.4L165.7 30.0996L191.2 33.0996C189.2 45.0995 187.1 57.0998 184.9 69.0996L178.3 105.1H96.4003L109.9 32.7998L134.5 30.0996L137.5 16H51.0995ZM106.605 136.7C105.014 145.323 103.467 153.992 101.969 162.71C101.966 162.724 101.964 162.738 101.962 162.752C100.732 169.797 99.5014 176.841 98.2714 183.886L106.97 184.909C111.383 185.428 115.381 187.76 118.007 191.345C119.313 193.128 120.221 195.141 120.701 197.252C122.211 190.609 127.767 185.641 134.555 184.896L147.389 183.486L156.275 136.7H106.605ZM150.098 33.6475C148.588 40.2901 143.034 45.2597 136.246 46.0049L123.448 47.4082L115.664 89.0996H164.967C166.365 81.4714 167.763 73.8431 169.162 66.2148C170.335 59.8167 171.478 53.4184 172.594 47.0205L163.83 45.9902C159.417 45.4709 155.419 43.1401 152.793 39.5557C151.486 37.7723 150.578 35.7583 150.098 33.6475Z" fill="black"/>
<path d="M165.7 30.1L168.4 16H254.8L251.8 30.1L227.2 32.8L210.4 121.9C208 134.5 205.7 147.2 203.5 160C201.3 172.6 199.1 185.2 196.9 197.8L222.4 200.8L219.7 214.9H133.3L136.3 200.8L160.9 198.1L175.6 120.7H93.3999L93.0999 121.9C90.6999 134.5 88.3999 147.2 86.1999 160C83.9999 172.6 81.7999 185.2 79.5999 197.8L105.1 200.8L102.4 214.9H15.9999L18.9999 200.8L43.5999 198.1L60.3999 109C62.7999 96.4 65.0999 83.8 67.2999 71.2C69.6999 58.4 71.8999 45.7 73.8999 33.1L48.3999 30.1L51.0999 16H137.5L134.5 30.1L109.9 32.8L96.3999 105.1H178.3C180.5 93.1 182.7 81.1 184.9 69.1C187.1 57.1 189.2 45.1 191.2 33.1L165.7 30.1Z" fill="#CFB991"/>
<path d="M242.444 70.6L253.544 16H416.144L406.844 70.6H387.644L388.544 31.9H350.444L333.344 121.9C331.144 134.5 328.844 147.1 326.444 159.7C324.244 172.3 322.044 185 319.844 197.8L348.044 200.8L345.344 214.9H253.244L256.244 200.8L284.144 197.8L300.644 109C303.244 96.2 305.644 83.4 307.844 70.6C310.244 57.6 312.444 44.7 314.444 31.9H275.444L261.944 70.6H242.444Z" fill="#CFB991"/>
<path d="M137.5 10C139.31 10 141.024 10.8176 142.163 12.2246C143.302 13.6317 143.745 15.4782 143.368 17.249L140.368 31.3486C139.829 33.8807 137.727 35.782 135.154 36.0645L114.98 38.2783L103.624 99.0996H173.3C175.199 88.7391 177.099 78.3781 178.998 68.0176C180.813 58.1188 182.558 48.2199 184.236 38.3213L164.999 36.0586C163.344 35.8639 161.844 34.9898 160.859 33.6455C159.875 32.3013 159.493 30.6081 159.807 28.9717L162.507 14.8711L162.563 14.6084C163.204 11.9183 165.612 10 168.4 10H416.143C417.911 10 419.588 10.7793 420.728 12.1299C421.868 13.4805 422.355 15.2655 422.059 17.0078L412.759 71.6074C412.268 74.4908 409.769 76.5996 406.844 76.5996H387.643C386.028 76.5996 384.481 75.9483 383.352 74.793C382.224 73.6375 381.608 72.0758 381.645 70.4609L382.402 37.9004H355.41L339.238 123.02C337.043 135.591 334.748 148.162 332.354 160.732L329.056 179.699C328.318 183.958 327.582 188.229 326.845 192.511L348.679 194.834C350.347 195.012 351.865 195.879 352.864 197.228C353.863 198.576 354.252 200.281 353.936 201.929L351.236 216.028C350.695 218.856 348.222 220.9 345.344 220.9H253.244C251.434 220.9 249.719 220.083 248.58 218.676C247.441 217.269 246.998 215.422 247.375 213.651L250.375 199.552L250.431 199.315C251.047 196.897 253.104 195.103 255.602 194.834L279.06 192.311L294.745 107.904L294.764 107.806C297.352 95.0646 299.741 82.324 301.931 69.584L301.943 69.5107C303.901 58.9062 305.723 48.3691 307.413 37.9004H279.705L267.609 72.5762C266.769 74.9857 264.495 76.5996 261.943 76.5996H242.443C240.643 76.5995 238.937 75.7909 237.798 74.3965C236.658 73.002 236.206 71.1691 236.564 69.4043L243.134 37.0869L232.271 38.2793L216.296 123.012L216.294 123.022C213.901 135.587 211.607 148.252 209.413 161.017C209.412 161.022 209.411 161.027 209.41 161.032C207.574 171.549 205.738 182.065 203.901 192.582L223.1 194.841C224.755 195.036 226.255 195.91 227.24 197.254C228.225 198.598 228.606 200.292 228.293 201.929L225.593 216.028C225.051 218.855 222.579 220.9 219.7 220.9H133.3C131.489 220.9 129.776 220.083 128.637 218.676C127.497 217.269 127.055 215.422 127.432 213.651L130.432 199.552L130.486 199.315C131.102 196.902 133.153 195.11 135.645 194.836L155.833 192.619L168.352 126.7H98.2978C96.1554 138.057 94.0933 149.496 92.1132 161.017C92.1123 161.022 92.1112 161.027 92.1103 161.032C90.274 171.549 88.4377 182.065 86.6015 192.582L105.801 194.841C107.456 195.036 108.956 195.91 109.94 197.254C110.925 198.598 111.306 200.292 110.993 201.929L108.293 216.028C107.752 218.855 105.279 220.9 102.4 220.9H15.9999C14.1896 220.9 12.476 220.083 11.3368 218.676C10.1976 217.269 9.75499 215.422 10.1317 213.651L13.1317 199.552L13.1864 199.315C13.8021 196.902 15.8529 195.11 18.3456 194.836L38.5273 192.62L54.5038 107.889L54.5058 107.877C56.9 95.3072 59.1949 82.7375 61.3896 70.168L61.4023 70.0947C63.401 59.4347 65.2577 48.8445 66.9775 38.3262L47.6991 36.0586C46.0442 35.8639 44.5442 34.9898 43.5595 33.6455C42.5749 32.3013 42.1934 30.6082 42.5067 28.9717L45.2069 14.8711L45.2636 14.6084C45.9037 11.9185 48.3112 10.0002 51.0995 10H137.5ZM51.0995 16L48.4003 30.0996L73.9003 33.0996C71.9003 45.6996 69.6997 58.4002 67.2997 71.2002L66.4706 75.9248C64.5237 86.9499 62.5003 97.9749 60.4003 109L43.5995 198.1L18.9999 200.8L15.9999 214.9H102.4L105.1 200.8L79.5995 197.8L86.2001 160C88.4001 147.2 90.6996 134.5 93.0995 121.9L93.4003 120.7H175.6L160.9 198.1L136.3 200.8L133.3 214.9H219.7L222.4 200.8L196.9 197.8C199.1 185.2 201.3 172.6 203.5 160C205.425 148.8 207.427 137.677 209.505 126.63L227.2 32.7998L250.651 30.2256L242.443 70.5996H261.943L275.443 31.9004H314.443C312.443 44.7001 310.244 57.5999 307.844 70.5996C305.644 83.3996 303.243 96.2 300.643 109L284.143 197.8L256.244 200.8L253.244 214.9H345.344L348.044 200.8L319.844 197.8C322.044 185 324.243 172.3 326.443 159.7C328.843 147.1 331.144 134.5 333.344 121.9L350.443 31.9004H388.544L387.643 70.5996H406.844L416.143 16H168.4L165.7 30.0996L191.2 33.0996C189.2 45.0995 187.1 57.0998 184.9 69.0996L178.3 105.1H96.4003L109.9 32.7998L134.5 30.0996L137.5 16H51.0995Z" fill="#B1B3B3"/>
</svg>
